<?xml version="1.0" encoding="UTF-8"?>
<svg version="1.1" xmlns="http://www.w3.org/2000/svg" width="32" height="32">
<path d="M0 0 C10.56 0 21.12 0 32 0 C32 10.56 32 21.12 32 32 C21.44 32 10.88 32 0 32 C0 21.44 0 10.88 0 0 Z " fill="#F8F8F8" transform="translate(0,0)"/>
<path d="M0 0 C1.21258782 13.08584352 1.21258782 13.08584352 -1.640625 17.58984375 C-3.72373743 19.47621779 -5.4093874 20.9032443 -8 22 C-10.19921875 21.8046875 -10.19921875 21.8046875 -12 21 C-13.0625 18.625 -13.0625 18.625 -14 16 C-16.21075447 13.1576014 -18.63983948 12.18059694 -22 11 C-22 6.86572084 -21.9593025 6.20790369 -19.4375 3.25 C-14.16169575 -1.88351077 -6.80288038 -0.5515849 0 0 Z " fill="#2B2B2B" transform="translate(32,0)"/>
<path d="M0 0 C5.61 0 11.22 0 17 0 C15.4375 1.69270833 13.875 3.38541667 12.3125 5.078125 C10.62402557 7.162653 10.62402557 7.162653 11 11 C12.32 11.33 13.64 11.66 15 12 C15 12.66 15 13.32 15 14 C14.34 14 13.68 14 13 14 C12.773125 14.61875 12.54625 15.2375 12.3125 15.875 C10.58782538 18.66733034 9.03444844 18.82759947 6 20 C4.02 21.65 2.04 23.3 0 25 C0 16.75 0 8.5 0 0 Z " fill="#FAFAFA" transform="translate(0,0)"/>
<path d="M0 0 C1.32 0.66 2.64 1.32 4 2 C1.36587108 8.00581395 -1.52795746 13.15191847 -7 17 C-10.4375 17.4375 -10.4375 17.4375 -13 17 C-13.49929036 13.50496751 -13.71601836 11.01132537 -11.6171875 8.046875 C-8.39198722 4.72394138 -5.51937329 2.32922744 -1 1 C-0.67 0.67 -0.34 0.34 0 0 Z " fill="#3A3A3A" transform="translate(13,15)"/>
<path d="M0 0 C3.96 0 7.92 0 12 0 C12 3.96 12 7.92 12 12 C7.02076087 10.72624115 4.25485439 8.9988211 1 5 C0.67 3.35 0.34 1.7 0 0 Z " fill="#F1F1F1" transform="translate(20,0)"/>
<path d="M0 0 C1.65 1.32 3.3 2.64 5 4 C4.67 5.32 4.34 6.64 4 8 C3.67 7.34 3.34 6.68 3 6 C1.02 6.99 1.02 6.99 -1 8 C-0.34 6.68 0.32 5.36 1 4 C0.01 3.01 -0.98 2.02 -2 1 C-1.34 0.67 -0.68 0.34 0 0 Z " fill="#D4D4D4" transform="translate(15,13)"/>
</svg>
